<svg xmlns="http://www.w3.org/2000/svg" xmlns:xlink="http://www.w3.org/1999/xlink" width="500" zoomAndPan="magnify" viewBox="0 0 375 374.999991" height="500" preserveAspectRatio="xMidYMid meet" version="1.0"><defs><g/><clipPath id="d6d7f45c9b"><path d="M 312.777344 169.992188 L 348 169.992188 L 348 205.242188 L 312.777344 205.242188 Z M 312.777344 169.992188 " clip-rule="nonzero"/></clipPath><clipPath id="a9300dda61"><path d="M 321 169.992188 L 339 169.992188 L 339 205.242188 L 321 205.242188 Z M 321 169.992188 " clip-rule="nonzero"/></clipPath><clipPath id="6af4e0ba57"><path d="M 322 134 L 375 134 L 375 181 L 322 181 Z M 322 134 " clip-rule="nonzero"/></clipPath><clipPath id="75f6795c9f"><path d="M 332.695312 120.476562 L 385.382812 158.960938 L 364.148438 188.03125 L 311.460938 149.546875 Z M 332.695312 120.476562 " clip-rule="nonzero"/></clipPath><clipPath id="6530cba512"><path d="M 332.695312 120.476562 L 385.382812 158.960938 L 355.746094 199.539062 L 303.054688 161.050781 Z M 332.695312 120.476562 " clip-rule="nonzero"/></clipPath></defs><g fill="#1800ad" fill-opacity="1"><g transform="translate(-1.416427, 201.186887)"><g><path d="M 3.875 0 L 3.875 -38.21875 L 20.265625 -38.21875 C 22.660156 -38.21875 24.800781 -38.015625 26.6875 -37.609375 C 28.582031 -37.203125 30.203125 -36.582031 31.546875 -35.75 C 32.898438 -34.925781 33.9375 -33.863281 34.65625 -32.5625 C 35.375 -31.269531 35.734375 -29.738281 35.734375 -27.96875 C 35.734375 -26.457031 35.410156 -25.144531 34.765625 -24.03125 C 34.128906 -22.914062 33.125 -22 31.75 -21.28125 C 30.382812 -20.5625 28.582031 -20.109375 26.34375 -19.921875 L 26.34375 -18.9375 C 30.09375 -18.738281 32.851562 -17.859375 34.625 -16.296875 C 36.40625 -14.734375 37.296875 -12.640625 37.296875 -10.015625 C 37.296875 -7.773438 36.695312 -5.921875 35.5 -4.453125 C 34.300781 -2.992188 32.550781 -1.882812 30.25 -1.125 C 27.957031 -0.375 25.113281 0 21.71875 0 Z M 12.796875 -7.40625 L 21.484375 -7.40625 C 22.328125 -7.40625 23.144531 -7.460938 23.9375 -7.578125 C 24.726562 -7.703125 25.441406 -7.90625 26.078125 -8.1875 C 26.722656 -8.476562 27.226562 -8.90625 27.59375 -9.46875 C 27.957031 -10.03125 28.140625 -10.753906 28.140625 -11.640625 C 28.140625 -12.410156 28.003906 -13.066406 27.734375 -13.609375 C 27.460938 -14.148438 27.066406 -14.601562 26.546875 -14.96875 C 26.023438 -15.332031 25.425781 -15.617188 24.75 -15.828125 C 24.070312 -16.046875 23.328125 -16.203125 22.515625 -16.296875 C 21.710938 -16.398438 20.867188 -16.453125 19.984375 -16.453125 L 12.796875 -16.453125 Z M 12.796875 -22.171875 L 18.59375 -22.171875 C 19.707031 -22.171875 20.742188 -22.238281 21.703125 -22.375 C 22.671875 -22.507812 23.519531 -22.734375 24.25 -23.046875 C 24.988281 -23.359375 25.570312 -23.8125 26 -24.40625 C 26.425781 -25.007812 26.640625 -25.769531 26.640625 -26.6875 C 26.640625 -27.539062 26.445312 -28.242188 26.0625 -28.796875 C 25.675781 -29.359375 25.160156 -29.785156 24.515625 -30.078125 C 23.878906 -30.367188 23.144531 -30.582031 22.3125 -30.71875 C 21.488281 -30.851562 20.648438 -30.921875 19.796875 -30.921875 L 12.796875 -30.921875 Z M 12.796875 -22.171875 "/></g></g></g><g fill="#1800ad" fill-opacity="1"><g transform="translate(38.238665, 201.186887)"><g><path d="M 17.546875 0.8125 C 14.453125 0.8125 11.726562 0.210938 9.375 -0.984375 C 7.019531 -2.179688 5.164062 -3.972656 3.8125 -6.359375 C 2.46875 -8.753906 1.796875 -11.75 1.796875 -15.34375 C 1.796875 -18.9375 2.46875 -21.921875 3.8125 -24.296875 C 5.164062 -26.671875 7.03125 -28.445312 9.40625 -29.625 C 11.78125 -30.800781 14.515625 -31.390625 17.609375 -31.390625 C 20.691406 -31.390625 23.429688 -30.789062 25.828125 -29.59375 C 28.222656 -28.394531 30.082031 -26.609375 31.40625 -24.234375 C 32.738281 -21.859375 33.40625 -18.875 33.40625 -15.28125 C 33.40625 -11.613281 32.71875 -8.582031 31.34375 -6.1875 C 29.976562 -3.800781 28.085938 -2.035156 25.671875 -0.890625 C 23.265625 0.242188 20.554688 0.8125 17.546875 0.8125 Z M 17.828125 -5.96875 C 18.722656 -5.96875 19.546875 -6.117188 20.296875 -6.421875 C 21.046875 -6.734375 21.703125 -7.21875 22.265625 -7.875 C 22.828125 -8.53125 23.257812 -9.425781 23.5625 -10.5625 C 23.875 -11.707031 24.03125 -13.085938 24.03125 -14.703125 C 24.03125 -16.441406 23.851562 -17.921875 23.5 -19.140625 C 23.15625 -20.359375 22.675781 -21.34375 22.0625 -22.09375 C 21.445312 -22.84375 20.734375 -23.390625 19.921875 -23.734375 C 19.109375 -24.085938 18.238281 -24.265625 17.3125 -24.265625 C 16.46875 -24.265625 15.664062 -24.109375 14.90625 -23.796875 C 14.15625 -23.492188 13.507812 -23.015625 12.96875 -22.359375 C 12.425781 -21.703125 11.988281 -20.800781 11.65625 -19.65625 C 11.332031 -18.519531 11.171875 -17.125 11.171875 -15.46875 C 11.171875 -13.726562 11.34375 -12.25 11.6875 -11.03125 C 12.039062 -9.8125 12.523438 -8.832031 13.140625 -8.09375 C 13.765625 -7.363281 14.472656 -6.828125 15.265625 -6.484375 C 16.054688 -6.140625 16.910156 -5.96875 17.828125 -5.96875 Z M 17.828125 -5.96875 "/></g></g></g><g fill="#1800ad" fill-opacity="1"><g transform="translate(73.725681, 201.186887)"><g><path d="M 16.046875 0.8125 C 13.992188 0.8125 12.128906 0.625 10.453125 0.25 C 8.773438 -0.113281 7.316406 -0.648438 6.078125 -1.359375 C 4.847656 -2.078125 3.84375 -2.945312 3.0625 -3.96875 C 2.289062 -4.988281 1.769531 -6.15625 1.5 -7.46875 L 8.5625 -10.3125 C 8.800781 -9.613281 9.253906 -8.914062 9.921875 -8.21875 C 10.597656 -7.53125 11.488281 -6.972656 12.59375 -6.546875 C 13.695312 -6.117188 15.039062 -5.90625 16.625 -5.90625 C 18.164062 -5.90625 19.367188 -6.125 20.234375 -6.5625 C 21.109375 -7.007812 21.546875 -7.660156 21.546875 -8.515625 C 21.546875 -9.128906 21.300781 -9.609375 20.8125 -9.953125 C 20.332031 -10.304688 19.617188 -10.625 18.671875 -10.90625 C 17.722656 -11.195312 16.535156 -11.5 15.109375 -11.8125 C 13.609375 -12.125 12.101562 -12.488281 10.59375 -12.90625 C 9.09375 -13.332031 7.691406 -13.898438 6.390625 -14.609375 C 5.097656 -15.328125 4.054688 -16.265625 3.265625 -17.421875 C 2.472656 -18.585938 2.078125 -20.054688 2.078125 -21.828125 C 2.078125 -23.753906 2.585938 -25.421875 3.609375 -26.828125 C 4.640625 -28.242188 6.148438 -29.359375 8.140625 -30.171875 C 10.128906 -30.984375 12.53125 -31.390625 15.34375 -31.390625 C 17.894531 -31.390625 20.132812 -31.0625 22.0625 -30.40625 C 23.988281 -29.75 25.597656 -28.789062 26.890625 -27.53125 C 28.191406 -26.28125 29.050781 -24.75 29.46875 -22.9375 L 21.953125 -20.5 C 21.796875 -21.34375 21.425781 -22.070312 20.84375 -22.6875 C 20.269531 -23.3125 19.523438 -23.796875 18.609375 -24.140625 C 17.703125 -24.492188 16.632812 -24.671875 15.40625 -24.671875 C 13.9375 -24.671875 12.785156 -24.4375 11.953125 -23.96875 C 11.128906 -23.507812 10.71875 -22.894531 10.71875 -22.125 C 10.71875 -21.5 10.992188 -20.984375 11.546875 -20.578125 C 12.109375 -20.179688 12.898438 -19.847656 13.921875 -19.578125 C 14.953125 -19.304688 16.179688 -19.015625 17.609375 -18.703125 C 19.148438 -18.390625 20.65625 -18.03125 22.125 -17.625 C 23.59375 -17.226562 24.929688 -16.691406 26.140625 -16.015625 C 27.359375 -15.335938 28.332031 -14.4375 29.0625 -13.3125 C 29.800781 -12.195312 30.171875 -10.769531 30.171875 -9.03125 C 30.171875 -7.019531 29.617188 -5.269531 28.515625 -3.78125 C 27.421875 -2.300781 25.828125 -1.164062 23.734375 -0.375 C 21.648438 0.414062 19.085938 0.8125 16.046875 0.8125 Z M 16.046875 0.8125 "/></g></g></g><g fill="#1800ad" fill-opacity="1"><g transform="translate(105.85507, 201.186887)"><g><path d="M 16.046875 0.8125 C 13.992188 0.8125 12.128906 0.625 10.453125 0.25 C 8.773438 -0.113281 7.316406 -0.648438 6.078125 -1.359375 C 4.847656 -2.078125 3.84375 -2.945312 3.0625 -3.96875 C 2.289062 -4.988281 1.769531 -6.15625 1.5 -7.46875 L 8.5625 -10.3125 C 8.800781 -9.613281 9.253906 -8.914062 9.921875 -8.21875 C 10.597656 -7.53125 11.488281 -6.972656 12.59375 -6.546875 C 13.695312 -6.117188 15.039062 -5.90625 16.625 -5.90625 C 18.164062 -5.90625 19.367188 -6.125 20.234375 -6.5625 C 21.109375 -7.007812 21.546875 -7.660156 21.546875 -8.515625 C 21.546875 -9.128906 21.300781 -9.609375 20.8125 -9.953125 C 20.332031 -10.304688 19.617188 -10.625 18.671875 -10.90625 C 17.722656 -11.195312 16.535156 -11.5 15.109375 -11.8125 C 13.609375 -12.125 12.101562 -12.488281 10.59375 -12.90625 C 9.09375 -13.332031 7.691406 -13.898438 6.390625 -14.609375 C 5.097656 -15.328125 4.054688 -16.265625 3.265625 -17.421875 C 2.472656 -18.585938 2.078125 -20.054688 2.078125 -21.828125 C 2.078125 -23.753906 2.585938 -25.421875 3.609375 -26.828125 C 4.640625 -28.242188 6.148438 -29.359375 8.140625 -30.171875 C 10.128906 -30.984375 12.53125 -31.390625 15.34375 -31.390625 C 17.894531 -31.390625 20.132812 -31.0625 22.0625 -30.40625 C 23.988281 -29.75 25.597656 -28.789062 26.890625 -27.53125 C 28.191406 -26.28125 29.050781 -24.75 29.46875 -22.9375 L 21.953125 -20.5 C 21.796875 -21.34375 21.425781 -22.070312 20.84375 -22.6875 C 20.269531 -23.3125 19.523438 -23.796875 18.609375 -24.140625 C 17.703125 -24.492188 16.632812 -24.671875 15.40625 -24.671875 C 13.9375 -24.671875 12.785156 -24.4375 11.953125 -23.96875 C 11.128906 -23.507812 10.71875 -22.894531 10.71875 -22.125 C 10.71875 -21.5 10.992188 -20.984375 11.546875 -20.578125 C 12.109375 -20.179688 12.898438 -19.847656 13.921875 -19.578125 C 14.953125 -19.304688 16.179688 -19.015625 17.609375 -18.703125 C 19.148438 -18.390625 20.65625 -18.03125 22.125 -17.625 C 23.59375 -17.226562 24.929688 -16.691406 26.140625 -16.015625 C 27.359375 -15.335938 28.332031 -14.4375 29.0625 -13.3125 C 29.800781 -12.195312 30.171875 -10.769531 30.171875 -9.03125 C 30.171875 -7.019531 29.617188 -5.269531 28.515625 -3.78125 C 27.421875 -2.300781 25.828125 -1.164062 23.734375 -0.375 C 21.648438 0.414062 19.085938 0.8125 16.046875 0.8125 Z M 16.046875 0.8125 "/></g></g></g><g fill="#1800ad" fill-opacity="1"><g transform="translate(137.521259, 201.186887)"><g/></g></g><g fill="#1800ad" fill-opacity="1"><g transform="translate(150.315089, 201.186887)"><g><path d="M 3.875 0 L 3.875 -38.21875 L 16.046875 -38.21875 L 32.203125 -12.5625 L 32.78125 -12.5625 L 32.3125 -38.21875 L 41.40625 -38.21875 L 41.40625 0 L 30.34375 0 L 13.09375 -27.046875 L 12.453125 -27.046875 L 12.96875 0 Z M 3.875 0 "/></g></g></g><g fill="#1800ad" fill-opacity="1"><g transform="translate(195.58559, 201.186887)"><g><path d="M 18.015625 0.8125 C 15.421875 0.8125 13.128906 0.460938 11.140625 -0.234375 C 9.160156 -0.929688 7.472656 -1.941406 6.078125 -3.265625 C 4.691406 -4.597656 3.628906 -6.21875 2.890625 -8.125 C 2.160156 -10.039062 1.796875 -12.234375 1.796875 -14.703125 C 1.796875 -17.097656 2.140625 -19.316406 2.828125 -21.359375 C 3.523438 -23.410156 4.539062 -25.175781 5.875 -26.65625 C 7.207031 -28.144531 8.847656 -29.304688 10.796875 -30.140625 C 12.742188 -30.972656 14.9375 -31.390625 17.375 -31.390625 C 19.84375 -31.390625 22.007812 -30.984375 23.875 -30.171875 C 25.75 -29.359375 27.296875 -28.179688 28.515625 -26.640625 C 29.734375 -25.097656 30.617188 -23.210938 31.171875 -20.984375 C 31.734375 -18.765625 31.898438 -16.265625 31.671875 -13.484375 L 7.875 -13.265625 L 7.875 -18.1875 L 26.234375 -18.359375 L 23.109375 -16.046875 C 23.335938 -17.929688 23.21875 -19.484375 22.75 -20.703125 C 22.289062 -21.921875 21.585938 -22.816406 20.640625 -23.390625 C 19.691406 -23.972656 18.640625 -24.265625 17.484375 -24.265625 C 16.140625 -24.265625 14.953125 -23.894531 13.921875 -23.15625 C 12.898438 -22.425781 12.109375 -21.363281 11.546875 -19.96875 C 10.992188 -18.582031 10.71875 -16.882812 10.71875 -14.875 C 10.71875 -11.75 11.390625 -9.472656 12.734375 -8.046875 C 14.085938 -6.617188 15.828125 -5.90625 17.953125 -5.90625 C 18.992188 -5.90625 19.859375 -6.039062 20.546875 -6.3125 C 21.242188 -6.582031 21.804688 -6.9375 22.234375 -7.375 C 22.660156 -7.820312 23 -8.328125 23.25 -8.890625 C 23.5 -9.453125 23.679688 -10 23.796875 -10.53125 L 31.96875 -8.859375 C 31.695312 -7.429688 31.234375 -6.128906 30.578125 -4.953125 C 29.921875 -3.773438 29.03125 -2.757812 27.90625 -1.90625 C 26.789062 -1.0625 25.421875 -0.398438 23.796875 0.078125 C 22.179688 0.566406 20.253906 0.8125 18.015625 0.8125 Z M 18.015625 0.8125 "/></g></g></g><g fill="#1800ad" fill-opacity="1"><g transform="translate(229.104234, 201.186887)"><g><path d="M 8.046875 0 L 0.6875 -30.578125 L 10.421875 -30.578125 L 14.1875 -7.359375 L 15.234375 -7.359375 L 19.921875 -30.578125 L 30.859375 -30.578125 L 35.671875 -7.359375 L 36.828125 -7.359375 L 40.421875 -30.578125 L 49.96875 -30.578125 L 42.5625 0 L 29.765625 0 L 25.59375 -22.8125 L 24.609375 -22.8125 L 20.671875 0 Z M 8.046875 0 "/></g></g></g><g fill="#1800ad" fill-opacity="1"><g transform="translate(279.584852, 201.186887)"><g><path d="M 16.046875 0.8125 C 13.992188 0.8125 12.128906 0.625 10.453125 0.25 C 8.773438 -0.113281 7.316406 -0.648438 6.078125 -1.359375 C 4.847656 -2.078125 3.84375 -2.945312 3.0625 -3.96875 C 2.289062 -4.988281 1.769531 -6.15625 1.5 -7.46875 L 8.5625 -10.3125 C 8.800781 -9.613281 9.253906 -8.914062 9.921875 -8.21875 C 10.597656 -7.53125 11.488281 -6.972656 12.59375 -6.546875 C 13.695312 -6.117188 15.039062 -5.90625 16.625 -5.90625 C 18.164062 -5.90625 19.367188 -6.125 20.234375 -6.5625 C 21.109375 -7.007812 21.546875 -7.660156 21.546875 -8.515625 C 21.546875 -9.128906 21.300781 -9.609375 20.8125 -9.953125 C 20.332031 -10.304688 19.617188 -10.625 18.671875 -10.90625 C 17.722656 -11.195312 16.535156 -11.5 15.109375 -11.8125 C 13.609375 -12.125 12.101562 -12.488281 10.59375 -12.90625 C 9.09375 -13.332031 7.691406 -13.898438 6.390625 -14.609375 C 5.097656 -15.328125 4.054688 -16.265625 3.265625 -17.421875 C 2.472656 -18.585938 2.078125 -20.054688 2.078125 -21.828125 C 2.078125 -23.753906 2.585938 -25.421875 3.609375 -26.828125 C 4.640625 -28.242188 6.148438 -29.359375 8.140625 -30.171875 C 10.128906 -30.984375 12.53125 -31.390625 15.34375 -31.390625 C 17.894531 -31.390625 20.132812 -31.0625 22.0625 -30.40625 C 23.988281 -29.75 25.597656 -28.789062 26.890625 -27.53125 C 28.191406 -26.28125 29.050781 -24.75 29.46875 -22.9375 L 21.953125 -20.5 C 21.796875 -21.34375 21.425781 -22.070312 20.84375 -22.6875 C 20.269531 -23.3125 19.523438 -23.796875 18.609375 -24.140625 C 17.703125 -24.492188 16.632812 -24.671875 15.40625 -24.671875 C 13.9375 -24.671875 12.785156 -24.4375 11.953125 -23.96875 C 11.128906 -23.507812 10.71875 -22.894531 10.71875 -22.125 C 10.71875 -21.5 10.992188 -20.984375 11.546875 -20.578125 C 12.109375 -20.179688 12.898438 -19.847656 13.921875 -19.578125 C 14.953125 -19.304688 16.179688 -19.015625 17.609375 -18.703125 C 19.148438 -18.390625 20.65625 -18.03125 22.125 -17.625 C 23.59375 -17.226562 24.929688 -16.691406 26.140625 -16.015625 C 27.359375 -15.335938 28.332031 -14.4375 29.0625 -13.3125 C 29.800781 -12.195312 30.171875 -10.769531 30.171875 -9.03125 C 30.171875 -7.019531 29.617188 -5.269531 28.515625 -3.78125 C 27.421875 -2.300781 25.828125 -1.164062 23.734375 -0.375 C 21.648438 0.414062 19.085938 0.8125 16.046875 0.8125 Z M 16.046875 0.8125 "/></g></g></g><g clip-path="url(#d6d7f45c9b)"><path fill="#004aad" d="M 330.292969 205.019531 C 320.636719 205.019531 312.777344 197.164062 312.777344 187.507812 C 312.777344 177.851562 320.636719 169.992188 330.292969 169.992188 C 339.949219 169.992188 347.804688 177.851562 347.804688 187.507812 C 347.804688 197.164062 339.949219 205.019531 330.292969 205.019531 Z M 330.292969 172.003906 C 321.742188 172.003906 314.785156 178.957031 314.785156 187.507812 C 314.785156 196.058594 321.742188 203.011719 330.292969 203.011719 C 338.839844 203.011719 345.796875 196.058594 345.796875 187.507812 C 345.796875 178.957031 338.839844 172.003906 330.292969 172.003906 Z M 330.292969 172.003906 " fill-opacity="1" fill-rule="nonzero"/></g><path fill="#004aad" d="M 345.90625 183.140625 L 314.679688 183.140625 C 314.125 183.140625 313.675781 182.691406 313.675781 182.136719 C 313.675781 181.578125 314.125 181.128906 314.679688 181.128906 L 345.90625 181.128906 C 346.460938 181.128906 346.910156 181.578125 346.910156 182.136719 C 346.910156 182.691406 346.460938 183.140625 345.90625 183.140625 Z M 345.90625 183.140625 " fill-opacity="1" fill-rule="nonzero"/><path fill="#004aad" d="M 345.90625 194.070312 L 314.679688 194.070312 C 314.125 194.070312 313.675781 193.625 313.675781 193.066406 C 313.675781 192.511719 314.125 192.0625 314.679688 192.0625 L 345.90625 192.0625 C 346.460938 192.0625 346.910156 192.511719 346.910156 193.066406 C 346.910156 193.625 346.460938 194.070312 345.90625 194.070312 Z M 345.90625 194.070312 " fill-opacity="1" fill-rule="nonzero"/><g clip-path="url(#a9300dda61)"><path fill="#004aad" d="M 330.292969 205.019531 C 325.570312 205.019531 321.871094 197.328125 321.871094 187.507812 C 321.871094 177.6875 325.570312 169.992188 330.292969 169.992188 C 335.011719 169.992188 338.710938 177.6875 338.710938 187.507812 C 338.710938 197.328125 335.011719 205.019531 330.292969 205.019531 Z M 330.292969 172.003906 C 327.261719 172.003906 323.882812 178.375 323.882812 187.507812 C 323.882812 196.640625 327.257812 203.011719 330.292969 203.011719 C 333.328125 203.011719 336.703125 196.640625 336.703125 187.507812 C 336.703125 178.375 333.320312 172.003906 330.292969 172.003906 Z M 330.292969 172.003906 " fill-opacity="1" fill-rule="nonzero"/></g><g clip-path="url(#6af4e0ba57)"><g clip-path="url(#75f6795c9f)"><g clip-path="url(#6530cba512)"><path fill="#004aad" d="M 322.261719 135.101562 L 323.542969 143.328125 C 343.996094 140.144531 363.160156 154.144531 366.347656 174.59375 L 374.578125 173.3125 C 370.6875 148.335938 347.265625 131.226562 322.261719 135.101562 Z M 327.390625 168.019531 L 329.3125 180.363281 L 341.660156 178.441406 C 340.617188 171.628906 334.222656 166.957031 327.390625 168.019531 Z M 324.828125 151.558594 L 326.109375 159.789062 C 337.464844 158.019531 348.117188 165.800781 349.886719 177.160156 L 358.117188 175.878906 C 355.644531 159.992188 340.734375 149.101562 324.828125 151.558594 Z M 324.828125 151.558594 " fill-opacity="1" fill-rule="nonzero"/></g></g></g><g fill="#004aad" fill-opacity="1"><g transform="translate(21.49315, 231.814526)"><g><path d="M 7.71875 0.1875 C 6.40625 0.1875 5.222656 -0.09375 4.171875 -0.65625 C 3.128906 -1.226562 2.304688 -2.019531 1.703125 -3.03125 C 1.109375 -4.039062 0.8125 -5.171875 0.8125 -6.421875 C 0.8125 -7.660156 1.109375 -8.785156 1.703125 -9.796875 C 2.304688 -10.804688 3.128906 -11.59375 4.171875 -12.15625 C 5.222656 -12.726562 6.40625 -13.015625 7.71875 -13.015625 C 9.019531 -13.015625 10.195312 -12.726562 11.25 -12.15625 C 12.300781 -11.59375 13.125 -10.804688 13.71875 -9.796875 C 14.320312 -8.796875 14.625 -7.671875 14.625 -6.421875 C 14.625 -5.160156 14.320312 -4.023438 13.71875 -3.015625 C 13.125 -2.015625 12.300781 -1.226562 11.25 -0.65625 C 10.195312 -0.09375 9.019531 0.1875 7.71875 0.1875 Z M 7.71875 -1.90625 C 8.570312 -1.90625 9.335938 -2.097656 10.015625 -2.484375 C 10.703125 -2.867188 11.238281 -3.40625 11.625 -4.09375 C 12.019531 -4.78125 12.21875 -5.554688 12.21875 -6.421875 C 12.21875 -7.273438 12.019531 -8.046875 11.625 -8.734375 C 11.238281 -9.421875 10.703125 -9.957031 10.015625 -10.34375 C 9.335938 -10.726562 8.570312 -10.921875 7.71875 -10.921875 C 6.863281 -10.921875 6.09375 -10.726562 5.40625 -10.34375 C 4.71875 -9.957031 4.175781 -9.421875 3.78125 -8.734375 C 3.394531 -8.046875 3.203125 -7.273438 3.203125 -6.421875 C 3.203125 -5.554688 3.394531 -4.78125 3.78125 -4.09375 C 4.175781 -3.40625 4.71875 -2.867188 5.40625 -2.484375 C 6.09375 -2.097656 6.863281 -1.90625 7.71875 -1.90625 Z M 7.71875 -1.90625 "/></g></g></g><g fill="#004aad" fill-opacity="1"><g transform="translate(42.833931, 231.814526)"><g><path d="M 13.125 -12.828125 L 13.125 0 L 11.15625 0 L 4.09375 -8.6875 L 4.09375 0 L 1.71875 0 L 1.71875 -12.828125 L 3.6875 -12.828125 L 10.765625 -4.140625 L 10.765625 -12.828125 Z M 13.125 -12.828125 "/></g></g></g><g fill="#004aad" fill-opacity="1"><g transform="translate(63.588591, 231.814526)"><g><path d="M 1.71875 -12.828125 L 4.109375 -12.828125 L 4.109375 -2.015625 L 10.8125 -2.015625 L 10.8125 0 L 1.71875 0 Z M 1.71875 -12.828125 "/></g></g></g><g fill="#004aad" fill-opacity="1"><g transform="translate(80.478479, 231.814526)"><g><path d="M 1.71875 -12.828125 L 4.109375 -12.828125 L 4.109375 0 L 1.71875 0 Z M 1.71875 -12.828125 "/></g></g></g><g fill="#004aad" fill-opacity="1"><g transform="translate(92.239754, 231.814526)"><g><path d="M 13.125 -12.828125 L 13.125 0 L 11.15625 0 L 4.09375 -8.6875 L 4.09375 0 L 1.71875 0 L 1.71875 -12.828125 L 3.6875 -12.828125 L 10.765625 -4.140625 L 10.765625 -12.828125 Z M 13.125 -12.828125 "/></g></g></g><g fill="#004aad" fill-opacity="1"><g transform="translate(112.994414, 231.814526)"><g><path d="M 11.34375 -2 L 11.34375 0 L 1.71875 0 L 1.71875 -12.828125 L 11.09375 -12.828125 L 11.09375 -10.828125 L 4.109375 -10.828125 L 4.109375 -7.5 L 10.296875 -7.5 L 10.296875 -5.53125 L 4.109375 -5.53125 L 4.109375 -2 Z M 11.34375 -2 "/></g></g></g><g fill="#004aad" fill-opacity="1"><g transform="translate(131.184762, 231.814526)"><g/></g></g><g fill="#004aad" fill-opacity="1"><g transform="translate(142.158433, 231.814526)"><g><path d="M 1.71875 -12.828125 L 7.328125 -12.828125 C 8.703125 -12.828125 9.921875 -12.5625 10.984375 -12.03125 C 12.046875 -11.5 12.867188 -10.75 13.453125 -9.78125 C 14.035156 -8.8125 14.328125 -7.691406 14.328125 -6.421875 C 14.328125 -5.148438 14.035156 -4.023438 13.453125 -3.046875 C 12.867188 -2.078125 12.046875 -1.328125 10.984375 -0.796875 C 9.921875 -0.265625 8.703125 0 7.328125 0 L 1.71875 0 Z M 7.21875 -2.015625 C 8.15625 -2.015625 8.984375 -2.191406 9.703125 -2.546875 C 10.421875 -2.910156 10.972656 -3.425781 11.359375 -4.09375 C 11.742188 -4.757812 11.9375 -5.535156 11.9375 -6.421875 C 11.9375 -7.296875 11.742188 -8.066406 11.359375 -8.734375 C 10.972656 -9.398438 10.421875 -9.910156 9.703125 -10.265625 C 8.984375 -10.628906 8.15625 -10.8125 7.21875 -10.8125 L 4.109375 -10.8125 L 4.109375 -2.015625 Z M 7.21875 -2.015625 "/></g></g></g><g fill="#004aad" fill-opacity="1"><g transform="translate(163.206153, 231.814526)"><g><path d="M 1.71875 -12.828125 L 4.109375 -12.828125 L 4.109375 0 L 1.71875 0 Z M 1.71875 -12.828125 "/></g></g></g><g fill="#004aad" fill-opacity="1"><g transform="translate(174.967428, 231.814526)"><g><path d="M 10.484375 -6.5625 L 12.734375 -6.5625 L 12.734375 -1.453125 C 12.078125 -0.921875 11.304688 -0.515625 10.421875 -0.234375 C 9.546875 0.046875 8.644531 0.1875 7.71875 0.1875 C 6.40625 0.1875 5.222656 -0.09375 4.171875 -0.65625 C 3.128906 -1.226562 2.304688 -2.015625 1.703125 -3.015625 C 1.109375 -4.023438 0.8125 -5.160156 0.8125 -6.421875 C 0.8125 -7.671875 1.109375 -8.796875 1.703125 -9.796875 C 2.304688 -10.804688 3.132812 -11.59375 4.1875 -12.15625 C 5.238281 -12.726562 6.425781 -13.015625 7.75 -13.015625 C 8.820312 -13.015625 9.796875 -12.835938 10.671875 -12.484375 C 11.554688 -12.128906 12.300781 -11.609375 12.90625 -10.921875 L 11.40625 -9.453125 C 10.425781 -10.429688 9.242188 -10.921875 7.859375 -10.921875 C 6.953125 -10.921875 6.148438 -10.726562 5.453125 -10.34375 C 4.753906 -9.96875 4.203125 -9.4375 3.796875 -8.75 C 3.398438 -8.070312 3.203125 -7.296875 3.203125 -6.421875 C 3.203125 -5.554688 3.398438 -4.78125 3.796875 -4.09375 C 4.203125 -3.414062 4.753906 -2.878906 5.453125 -2.484375 C 6.148438 -2.097656 6.945312 -1.90625 7.84375 -1.90625 C 8.84375 -1.90625 9.722656 -2.125 10.484375 -2.5625 Z M 10.484375 -6.5625 "/></g></g></g><g fill="#004aad" fill-opacity="1"><g transform="translate(195.026059, 231.814526)"><g><path d="M 1.71875 -12.828125 L 4.109375 -12.828125 L 4.109375 0 L 1.71875 0 Z M 1.71875 -12.828125 "/></g></g></g><g fill="#004aad" fill-opacity="1"><g transform="translate(206.787335, 231.814526)"><g><path d="M 4.328125 -10.8125 L 0.078125 -10.8125 L 0.078125 -12.828125 L 10.953125 -12.828125 L 10.953125 -10.8125 L 6.703125 -10.8125 L 6.703125 0 L 4.328125 0 Z M 4.328125 -10.8125 "/></g></g></g><g fill="#004aad" fill-opacity="1"><g transform="translate(223.090885, 231.814526)"><g><path d="M 10.046875 -2.96875 L 3.625 -2.96875 L 2.359375 0 L -0.09375 0 L 5.6875 -12.828125 L 8.03125 -12.828125 L 13.8125 0 L 11.328125 0 Z M 9.25 -4.84375 L 6.84375 -10.453125 L 4.4375 -4.84375 Z M 9.25 -4.84375 "/></g></g></g><g fill="#004aad" fill-opacity="1"><g transform="translate(242.728212, 231.814526)"><g><path d="M 1.71875 -12.828125 L 4.109375 -12.828125 L 4.109375 -2.015625 L 10.8125 -2.015625 L 10.8125 0 L 1.71875 0 Z M 1.71875 -12.828125 "/></g></g></g><g fill="#004aad" fill-opacity="1"><g transform="translate(259.618111, 231.814526)"><g/></g></g><g fill="#004aad" fill-opacity="1"><g transform="translate(270.591782, 231.814526)"><g><path d="M 13.515625 0 L 13.484375 -8.5 L 9.28125 -1.46875 L 8.21875 -1.46875 L 4 -8.390625 L 4 0 L 1.71875 0 L 1.71875 -12.828125 L 3.6875 -12.828125 L 8.78125 -4.328125 L 13.78125 -12.828125 L 15.75 -12.828125 L 15.765625 0 Z M 13.515625 0 "/></g></g></g><g fill="#004aad" fill-opacity="1"><g transform="translate(294.002318, 231.814526)"><g><path d="M 11.34375 -2 L 11.34375 0 L 1.71875 0 L 1.71875 -12.828125 L 11.09375 -12.828125 L 11.09375 -10.828125 L 4.109375 -10.828125 L 4.109375 -7.5 L 10.296875 -7.5 L 10.296875 -5.53125 L 4.109375 -5.53125 L 4.109375 -2 Z M 11.34375 -2 "/></g></g></g><g fill="#004aad" fill-opacity="1"><g transform="translate(312.192654, 231.814526)"><g><path d="M 1.71875 -12.828125 L 7.328125 -12.828125 C 8.703125 -12.828125 9.921875 -12.5625 10.984375 -12.03125 C 12.046875 -11.5 12.867188 -10.75 13.453125 -9.78125 C 14.035156 -8.8125 14.328125 -7.691406 14.328125 -6.421875 C 14.328125 -5.148438 14.035156 -4.023438 13.453125 -3.046875 C 12.867188 -2.078125 12.046875 -1.328125 10.984375 -0.796875 C 9.921875 -0.265625 8.703125 0 7.328125 0 L 1.71875 0 Z M 7.21875 -2.015625 C 8.15625 -2.015625 8.984375 -2.191406 9.703125 -2.546875 C 10.421875 -2.910156 10.972656 -3.425781 11.359375 -4.09375 C 11.742188 -4.757812 11.9375 -5.535156 11.9375 -6.421875 C 11.9375 -7.296875 11.742188 -8.066406 11.359375 -8.734375 C 10.972656 -9.398438 10.421875 -9.910156 9.703125 -10.265625 C 8.984375 -10.628906 8.15625 -10.8125 7.21875 -10.8125 L 4.109375 -10.8125 L 4.109375 -2.015625 Z M 7.21875 -2.015625 "/></g></g></g><g fill="#004aad" fill-opacity="1"><g transform="translate(333.240398, 231.814526)"><g><path d="M 1.71875 -12.828125 L 4.109375 -12.828125 L 4.109375 0 L 1.71875 0 Z M 1.71875 -12.828125 "/></g></g></g><g fill="#004aad" fill-opacity="1"><g transform="translate(345.001674, 231.814526)"><g><path d="M 10.046875 -2.96875 L 3.625 -2.96875 L 2.359375 0 L -0.09375 0 L 5.6875 -12.828125 L 8.03125 -12.828125 L 13.8125 0 L 11.328125 0 Z M 9.25 -4.84375 L 6.84375 -10.453125 L 4.4375 -4.84375 Z M 9.25 -4.84375 "/></g></g></g></svg>